<?xml version="1.0" encoding="utf-8"?>
<!-- Generator: Adobe Illustrator 26.0.3, SVG Export Plug-In . SVG Version: 6.00 Build 0)  -->
<svg version="1.1" id="Layer_1" xmlns="http://www.w3.org/2000/svg" xmlns:xlink="http://www.w3.org/1999/xlink" x="0px" y="0px"
	 viewBox="0 0 428.7 143.6" style="enable-background:new 0 0 428.7 143.6; fill: currentColor" xml:space="preserve">
<path d="M45.23,109.8c-3.01-0.64-5.81-1.6-8.42-2.88c-2.61-1.28-5.05-2.88-7.32-4.8l6.09-7.49c2.66,2.3,5.58,4.03,8.78,5.18
	c3.2,1.15,6.67,1.73,10.41,1.73c5.05,0,8.97-0.94,11.76-2.81c2.78-1.87,4.17-4.52,4.17-7.94v-0.05c0-2.43-0.63-4.36-1.9-5.78
	c-1.26-1.42-2.9-2.48-4.89-3.17c-2-0.69-4.58-1.32-7.75-1.9c-0.1-0.03-0.2-0.05-0.31-0.05c-0.11,0-0.22-0.02-0.31-0.05l-0.72-0.14
	c-4.67-0.8-8.47-1.7-11.4-2.71c-2.93-1.01-5.43-2.85-7.51-5.52c-2.08-2.67-3.12-6.47-3.12-11.4v-0.05c0-4.32,0.97-8.01,2.9-11.06
	c1.94-3.05,4.76-5.38,8.47-6.98c3.71-1.6,8.17-2.4,13.39-2.4c2.5,0,4.95,0.27,7.37,0.82c2.42,0.54,4.8,1.35,7.15,2.42
	c2.35,1.07,4.66,2.42,6.93,4.05l-5.57,7.77c-2.66-1.95-5.3-3.41-7.94-4.39c-2.64-0.98-5.29-1.46-7.94-1.46
	c-4.77,0-8.47,0.95-11.11,2.85c-2.64,1.9-3.96,4.6-3.96,8.09v0.05c0,2.4,0.68,4.29,2.04,5.66c1.36,1.38,3.05,2.39,5.09,3.05
	c2.03,0.66,4.85,1.34,8.47,2.04c0.13,0.03,0.25,0.06,0.36,0.07c0.11,0.02,0.23,0.04,0.36,0.07c0.16,0.03,0.34,0.06,0.53,0.1
	c0.19,0.03,0.37,0.06,0.53,0.1c4.22,0.86,7.75,1.89,10.58,3.07c2.83,1.18,5.2,3.1,7.1,5.73c1.9,2.64,2.85,6.25,2.85,10.82v0.1
	c0,4.25-1.01,7.89-3.02,10.92c-2.02,3.02-4.94,5.33-8.76,6.91c-3.82,1.58-8.44,2.38-13.84,2.38
	C51.42,110.76,48.24,110.44,45.23,109.8z"/>
<path d="M113.02,40.27v69.77h9.79V40.27H113.02z"/>
<polygon points="162.44,40.27 162.44,110.04 152.65,110.04 152.65,80.34 135.11,80.34 135.11,71.03 152.65,71.03 152.65,40.27 "/>
<path d="M331.87,50.44c-1.74-3.23-4.2-5.73-7.36-7.51c-3.17-1.77-6.83-2.66-10.99-2.66H286.5v69.77h9.79V82.98h17.23
	c4.16,0,7.82-0.88,10.99-2.64c3.16-1.76,5.62-4.25,7.36-7.46c1.74-3.22,2.62-6.96,2.62-11.21S333.61,53.67,331.87,50.44z
	 M323.14,67.96c-0.88,1.82-2.12,3.23-3.72,4.22s-3.46,1.49-5.57,1.49h-17.56V49.58h17.56c2.11,0,3.97,0.5,5.57,1.51
	c1.6,1.01,2.84,2.42,3.72,4.25c0.88,1.82,1.32,3.93,1.32,6.33C324.46,64.04,324.02,66.13,323.14,67.96z"/>
<polygon points="407.73,40.27 407.73,49.58 388.01,49.58 388.01,110.04 378.22,110.04 378.22,49.58 358.5,49.58 358.5,40.27 "/>
<path d="M223.76,40.27c-19.47,0-35.25,15.78-35.25,35.24c0,19.47,15.78,35.25,35.25,35.25c19.46,0,35.24-15.78,35.24-35.25
	C259,56.05,243.22,40.27,223.76,40.27z M223.76,100.44c-13.77,0-24.93-11.16-24.93-24.93c0-13.76,11.16-24.92,24.93-24.92
	c12.23,0,22.41,8.82,24.51,20.44h-18.5v9.31h18.43C245.96,91.8,235.87,100.44,223.76,100.44z"/>
</svg>
